<mxfile host="app.diagrams.net" modified="2021-10-19T07:35:46.482Z" agent="5.0 (Macintosh; Intel Mac OS X 10_15_7) AppleWebKit/537.36 (KHTML, like Gecko) Chrome/94.0.4606.71 Safari/537.36" etag="T-woyqDYpGw8-0JbNe_L" version="15.5.2" type="github">
  <diagram id="h8NxwV9EvGS1gY7jsNnz" name="Page-1">
    <mxGraphModel dx="1186" dy="764" grid="1" gridSize="10" guides="1" tooltips="1" connect="1" arrows="1" fold="1" page="1" pageScale="1" pageWidth="827" pageHeight="1169" math="0" shadow="0">
      <root>
        <mxCell id="0" />
        <mxCell id="1" parent="0" />
        <mxCell id="YCC9_aXwLLvpVHEqEHlf-1" value="单元测试（Unit Test）" style="rounded=0;whiteSpace=wrap;html=1;align=center;verticalAlign=top;fontSize=17;" vertex="1" parent="1">
          <mxGeometry x="40" y="80" width="400" height="500" as="geometry" />
        </mxCell>
        <mxCell id="YCC9_aXwLLvpVHEqEHlf-15" style="edgeStyle=orthogonalEdgeStyle;rounded=0;orthogonalLoop=1;jettySize=auto;html=1;entryX=0.118;entryY=-0.08;entryDx=0;entryDy=0;entryPerimeter=0;endArrow=none;endFill=0;strokeWidth=2;" edge="1" parent="1" source="YCC9_aXwLLvpVHEqEHlf-2" target="YCC9_aXwLLvpVHEqEHlf-7">
          <mxGeometry relative="1" as="geometry">
            <Array as="points">
              <mxPoint x="123" y="230" />
              <mxPoint x="123" y="230" />
            </Array>
          </mxGeometry>
        </mxCell>
        <mxCell id="YCC9_aXwLLvpVHEqEHlf-16" style="edgeStyle=orthogonalEdgeStyle;rounded=0;orthogonalLoop=1;jettySize=auto;html=1;entryX=0.5;entryY=0;entryDx=0;entryDy=0;endArrow=none;endFill=0;strokeWidth=2;" edge="1" parent="1" source="YCC9_aXwLLvpVHEqEHlf-2" target="YCC9_aXwLLvpVHEqEHlf-8">
          <mxGeometry relative="1" as="geometry" />
        </mxCell>
        <mxCell id="YCC9_aXwLLvpVHEqEHlf-2" value="Controller" style="rounded=0;whiteSpace=wrap;html=1;fontSize=15;fillColor=#f5f5f5;gradientColor=#b3b3b3;strokeColor=#666666;" vertex="1" parent="1">
          <mxGeometry x="80" y="140" width="330" height="40" as="geometry" />
        </mxCell>
        <mxCell id="YCC9_aXwLLvpVHEqEHlf-3" value="InMmory DB" style="rounded=0;whiteSpace=wrap;html=1;fontSize=15;fillColor=#dae8fc;strokeColor=#6c8ebf;gradientColor=#7ea6e0;" vertex="1" parent="1">
          <mxGeometry x="185" y="530" width="120" height="40" as="geometry" />
        </mxCell>
        <mxCell id="YCC9_aXwLLvpVHEqEHlf-6" value="" style="edgeStyle=orthogonalEdgeStyle;rounded=0;orthogonalLoop=1;jettySize=auto;html=1;endArrow=none;endFill=0;strokeWidth=2;" edge="1" parent="1" source="YCC9_aXwLLvpVHEqEHlf-5" target="YCC9_aXwLLvpVHEqEHlf-3">
          <mxGeometry relative="1" as="geometry" />
        </mxCell>
        <mxCell id="YCC9_aXwLLvpVHEqEHlf-5" value="Repository" style="rounded=0;whiteSpace=wrap;html=1;fontSize=15;fillColor=#f8cecc;gradientColor=#ea6b66;strokeColor=#b85450;" vertex="1" parent="1">
          <mxGeometry x="80" y="450" width="330" height="40" as="geometry" />
        </mxCell>
        <mxCell id="YCC9_aXwLLvpVHEqEHlf-7" value="Domain" style="rounded=0;whiteSpace=wrap;html=1;fontSize=15;fillColor=#dae8fc;gradientColor=#7ea6e0;strokeColor=#6c8ebf;" vertex="1" parent="1">
          <mxGeometry x="110" y="370" width="110" height="50" as="geometry" />
        </mxCell>
        <mxCell id="YCC9_aXwLLvpVHEqEHlf-9" value="" style="edgeStyle=orthogonalEdgeStyle;rounded=0;orthogonalLoop=1;jettySize=auto;html=1;endArrow=none;endFill=0;strokeWidth=2;" edge="1" parent="1" source="YCC9_aXwLLvpVHEqEHlf-8" target="YCC9_aXwLLvpVHEqEHlf-7">
          <mxGeometry relative="1" as="geometry">
            <Array as="points">
              <mxPoint x="190" y="350" />
              <mxPoint x="190" y="350" />
            </Array>
          </mxGeometry>
        </mxCell>
        <mxCell id="YCC9_aXwLLvpVHEqEHlf-10" style="edgeStyle=orthogonalEdgeStyle;rounded=0;orthogonalLoop=1;jettySize=auto;html=1;entryX=0.5;entryY=0;entryDx=0;entryDy=0;endArrow=none;endFill=0;strokeWidth=2;" edge="1" parent="1" source="YCC9_aXwLLvpVHEqEHlf-8" target="YCC9_aXwLLvpVHEqEHlf-5">
          <mxGeometry relative="1" as="geometry" />
        </mxCell>
        <mxCell id="YCC9_aXwLLvpVHEqEHlf-17" value="" style="edgeStyle=orthogonalEdgeStyle;rounded=0;orthogonalLoop=1;jettySize=auto;html=1;endArrow=none;endFill=0;strokeWidth=2;" edge="1" parent="1" source="YCC9_aXwLLvpVHEqEHlf-8" target="YCC9_aXwLLvpVHEqEHlf-12">
          <mxGeometry relative="1" as="geometry" />
        </mxCell>
        <mxCell id="YCC9_aXwLLvpVHEqEHlf-8" value="Service" style="rounded=0;whiteSpace=wrap;html=1;fontSize=15;fillColor=#d5e8d4;gradientColor=#97d077;strokeColor=#82b366;" vertex="1" parent="1">
          <mxGeometry x="165" y="280" width="160" height="50" as="geometry" />
        </mxCell>
        <mxCell id="YCC9_aXwLLvpVHEqEHlf-18" value="" style="edgeStyle=orthogonalEdgeStyle;rounded=0;orthogonalLoop=1;jettySize=auto;html=1;endArrow=none;endFill=0;strokeWidth=2;" edge="1" parent="1" source="YCC9_aXwLLvpVHEqEHlf-12" target="YCC9_aXwLLvpVHEqEHlf-2">
          <mxGeometry relative="1" as="geometry">
            <Array as="points">
              <mxPoint x="385" y="190" />
              <mxPoint x="385" y="190" />
            </Array>
          </mxGeometry>
        </mxCell>
        <mxCell id="YCC9_aXwLLvpVHEqEHlf-12" value="Proxy" style="rounded=0;whiteSpace=wrap;html=1;direction=south;fontSize=15;fillColor=#fff2cc;gradientColor=#ffd966;strokeColor=#d6b656;" vertex="1" parent="1">
          <mxGeometry x="360" y="225" width="50" height="160" as="geometry" />
        </mxCell>
        <mxCell id="YCC9_aXwLLvpVHEqEHlf-22" value="" style="edgeStyle=orthogonalEdgeStyle;rounded=0;orthogonalLoop=1;jettySize=auto;html=1;endArrow=none;endFill=0;strokeWidth=2;" edge="1" parent="1" source="YCC9_aXwLLvpVHEqEHlf-21" target="YCC9_aXwLLvpVHEqEHlf-12">
          <mxGeometry relative="1" as="geometry" />
        </mxCell>
        <mxCell id="YCC9_aXwLLvpVHEqEHlf-21" value="External&lt;br style=&quot;font-size: 13px;&quot;&gt;Service" style="rounded=0;whiteSpace=wrap;html=1;direction=south;fontSize=13;fillColor=#e6d0de;gradientColor=#d5739d;strokeColor=#996185;" vertex="1" parent="1">
          <mxGeometry x="480" y="225" width="50" height="160" as="geometry" />
        </mxCell>
      </root>
    </mxGraphModel>
  </diagram>
</mxfile>
